{
	"asset":{
		"copyright":"\u00a9loomygames",
		"generator":"Khronos glTF Blender I/O v3.5.30",
		"version":"2.0"
	},
	"scene":0,
	"scenes":[
		{
			"name":"Scene",
			"nodes":[
				0
			]
		}
	],
	"nodes":[
		{
			"mesh":0,
			"name":"KvitNise",
			"scale":[
				2.261793613433838,
				2.261793613433838,
				2.261793613433838
			]
		}
	],
	"materials":[
		{
			"doubleSided":true,
			"name":"Kler.004",
			"pbrMetallicRoughness":{
				"baseColorFactor":[
					0.323830246925354,
					0.323830246925354,
					0.323830246925354,
					1
				],
				"metallicFactor":0,
				"roughnessFactor":0.5
			}
		},
		{
			"doubleSided":true,
			"name":"Hud.004",
			"pbrMetallicRoughness":{
				"baseColorFactor":[
					0.8000000715255737,
					0.6009138822555542,
					0.36473289132118225,
					1
				],
				"metallicFactor":0,
				"roughnessFactor":0.5
			}
		},
		{
			"doubleSided":true,
			"name":"Sjeg og \u00f8yner.004",
			"pbrMetallicRoughness":{
				"baseColorFactor":[
					0.800000011920929,
					0.800000011920929,
					0.800000011920929,
					1
				],
				"metallicFactor":0,
				"roughnessFactor":0.5
			}
		},
		{
			"doubleSided":true,
			"name":"\u00f8yner.008",
			"pbrMetallicRoughness":{
				"baseColorFactor":[
					0,
					0,
					0,
					1
				],
				"metallicFactor":0,
				"roughnessFactor":0.5
			}
		},
		{
			"doubleSided":true,
			"name":"\u00f8yner.009",
			"pbrMetallicRoughness":{
				"baseColorFactor":[
					0.022495847195386887,
					0.030622679740190506,
					0.8000000715255737,
					1
				],
				"metallicFactor":0,
				"roughnessFactor":0.5
			}
		}
	],
	"meshes":[
		{
			"name":"Cone.009",
			"primitives":[
				{
					"attributes":{
						"POSITION":0,
						"TEXCOORD_0":1,
						"NORMAL":2
					},
					"indices":3,
					"material":0
				},
				{
					"attributes":{
						"POSITION":4,
						"TEXCOORD_0":5,
						"NORMAL":6
					},
					"indices":7,
					"material":1
				},
				{
					"attributes":{
						"POSITION":8,
						"TEXCOORD_0":9,
						"NORMAL":10
					},
					"indices":11,
					"material":2
				},
				{
					"attributes":{
						"POSITION":12,
						"TEXCOORD_0":13,
						"NORMAL":14
					},
					"indices":15,
					"material":3
				},
				{
					"attributes":{
						"POSITION":16,
						"TEXCOORD_0":17,
						"NORMAL":18
					},
					"indices":19,
					"material":4
				}
			]
		}
	],
	"accessors":[
		{
			"bufferView":0,
			"componentType":5126,
			"count":482,
			"max":[
				0.9288646578788757,
				3.3632123470306396,
				1.6210176944732666
			],
			"min":[
				-1.268174171447754,
				-4.202552795410156,
				-1.5653722286224365
			],
			"type":"VEC3"
		},
		{
			"bufferView":1,
			"componentType":5126,
			"count":482,
			"type":"VEC2"
		},
		{
			"bufferView":2,
			"componentType":5126,
			"count":482,
			"type":"VEC3"
		},
		{
			"bufferView":3,
			"componentType":5123,
			"count":2298,
			"type":"SCALAR"
		},
		{
			"bufferView":4,
			"componentType":5126,
			"count":63,
			"max":[
				1.2408949136734009,
				0.9472453594207764,
				1.2670576572418213
			],
			"min":[
				-1.268174171447754,
				-0.2152637243270874,
				-1.1314060688018799
			],
			"type":"VEC3"
		},
		{
			"bufferView":5,
			"componentType":5126,
			"count":63,
			"type":"VEC2"
		},
		{
			"bufferView":6,
			"componentType":5126,
			"count":63,
			"type":"VEC3"
		},
		{
			"bufferView":7,
			"componentType":5123,
			"count":216,
			"type":"SCALAR"
		},
		{
			"bufferView":8,
			"componentType":5126,
			"count":145,
			"max":[
				0.7581866383552551,
				0.6335065364837646,
				1.3072030544281006
			],
			"min":[
				-0.29225975275039673,
				-2.0046162605285645,
				-1.1715514659881592
			],
			"type":"VEC3"
		},
		{
			"bufferView":9,
			"componentType":5126,
			"count":145,
			"type":"VEC2"
		},
		{
			"bufferView":10,
			"componentType":5126,
			"count":145,
			"type":"VEC3"
		},
		{
			"bufferView":11,
			"componentType":5123,
			"count":432,
			"type":"SCALAR"
		},
		{
			"bufferView":12,
			"componentType":5126,
			"count":64,
			"max":[
				0.579596221446991,
				0.5036329030990601,
				0.558765709400177
			],
			"min":[
				0.5322567820549011,
				0.4142717123031616,
				-0.42311474680900574
			],
			"type":"VEC3"
		},
		{
			"bufferView":13,
			"componentType":5126,
			"count":64,
			"type":"VEC2"
		},
		{
			"bufferView":14,
			"componentType":5126,
			"count":64,
			"type":"VEC3"
		},
		{
			"bufferView":15,
			"componentType":5123,
			"count":180,
			"type":"SCALAR"
		},
		{
			"bufferView":16,
			"componentType":5126,
			"count":128,
			"max":[
				0.6168479919433594,
				0.5739519596099854,
				0.6190147995948792
			],
			"min":[
				0.49500513076782227,
				0.3439527750015259,
				-0.4833638370037079
			],
			"type":"VEC3"
		},
		{
			"bufferView":17,
			"componentType":5126,
			"count":128,
			"type":"VEC2"
		},
		{
			"bufferView":18,
			"componentType":5126,
			"count":128,
			"type":"VEC3"
		},
		{
			"bufferView":19,
			"componentType":5123,
			"count":384,
			"type":"SCALAR"
		}
	],
	"bufferViews":[
		{
			"buffer":0,
			"byteLength":5784,
			"byteOffset":0,
			"target":34962
		},
		{
			"buffer":0,
			"byteLength":3856,
			"byteOffset":5784,
			"target":34962
		},
		{
			"buffer":0,
			"byteLength":5784,
			"byteOffset":9640,
			"target":34962
		},
		{
			"buffer":0,
			"byteLength":4596,
			"byteOffset":15424,
			"target":34963
		},
		{
			"buffer":0,
			"byteLength":756,
			"byteOffset":20020,
			"target":34962
		},
		{
			"buffer":0,
			"byteLength":504,
			"byteOffset":20776,
			"target":34962
		},
		{
			"buffer":0,
			"byteLength":756,
			"byteOffset":21280,
			"target":34962
		},
		{
			"buffer":0,
			"byteLength":432,
			"byteOffset":22036,
			"target":34963
		},
		{
			"buffer":0,
			"byteLength":1740,
			"byteOffset":22468,
			"target":34962
		},
		{
			"buffer":0,
			"byteLength":1160,
			"byteOffset":24208,
			"target":34962
		},
		{
			"buffer":0,
			"byteLength":1740,
			"byteOffset":25368,
			"target":34962
		},
		{
			"buffer":0,
			"byteLength":864,
			"byteOffset":27108,
			"target":34963
		},
		{
			"buffer":0,
			"byteLength":768,
			"byteOffset":27972,
			"target":34962
		},
		{
			"buffer":0,
			"byteLength":512,
			"byteOffset":28740,
			"target":34962
		},
		{
			"buffer":0,
			"byteLength":768,
			"byteOffset":29252,
			"target":34962
		},
		{
			"buffer":0,
			"byteLength":360,
			"byteOffset":30020,
			"target":34963
		},
		{
			"buffer":0,
			"byteLength":1536,
			"byteOffset":30380,
			"target":34962
		},
		{
			"buffer":0,
			"byteLength":1024,
			"byteOffset":31916,
			"target":34962
		},
		{
			"buffer":0,
			"byteLength":1536,
			"byteOffset":32940,
			"target":34962
		},
		{
			"buffer":0,
			"byteLength":768,
			"byteOffset":34476,
			"target":34963
		}
	],
	"buffers":[
		{
			"byteLength":35244,
			"uri":"data:application/octet-stream;base64,"
		}
	]
}
