{
	"asset":{
		"copyright":"\u00a9loomygames",
		"generator":"Khronos glTF Blender I/O v3.5.30",
		"version":"2.0"
	},
	"scene":0,
	"scenes":[
		{
			"name":"Scene",
			"nodes":[
				0
			]
		}
	],
	"nodes":[
		{
			"mesh":0,
			"name":"Cube.025"
		}
	],
	"materials":[
		{
			"doubleSided":true,
			"name":"Sjeg og \u00f8iner.003",
			"pbrMetallicRoughness":{
				"baseColorFactor":[
					0.800000011920929,
					0.800000011920929,
					0.800000011920929,
					1
				],
				"metallicFactor":0,
				"roughnessFactor":0.5
			}
		},
		{
			"doubleSided":true,
			"name":"Kl\u00e6r.003",
			"pbrMetallicRoughness":{
				"baseColorFactor":[
					0.13842399418354034,
					0,
					0,
					1
				],
				"metallicFactor":0,
				"roughnessFactor":0.5
			}
		},
		{
			"doubleSided":true,
			"name":"Hud.008",
			"pbrMetallicRoughness":{
				"baseColorFactor":[
					0.8000000715255737,
					0.6009138822555542,
					0.36473289132118225,
					1
				],
				"metallicFactor":0,
				"roughnessFactor":0.5
			}
		},
		{
			"doubleSided":true,
			"name":"Sko og \u00f8yner.003",
			"pbrMetallicRoughness":{
				"baseColorFactor":[
					0,
					0,
					0,
					1
				],
				"metallicFactor":0,
				"roughnessFactor":0.5
			}
		},
		{
			"doubleSided":true,
			"name":"\u00d8yner.003",
			"pbrMetallicRoughness":{
				"baseColorFactor":[
					0.022495847195386887,
					0.030622679740190506,
					0.8000000715255737,
					1
				],
				"metallicFactor":0,
				"roughnessFactor":0.5
			}
		}
	],
	"meshes":[
		{
			"name":"Cube.038",
			"primitives":[
				{
					"attributes":{
						"POSITION":0,
						"TEXCOORD_0":1,
						"NORMAL":2
					},
					"indices":3,
					"material":0
				},
				{
					"attributes":{
						"POSITION":4,
						"TEXCOORD_0":5,
						"NORMAL":6
					},
					"indices":7,
					"material":1
				},
				{
					"attributes":{
						"POSITION":8,
						"TEXCOORD_0":9,
						"NORMAL":10
					},
					"indices":11,
					"material":2
				},
				{
					"attributes":{
						"POSITION":12,
						"TEXCOORD_0":13,
						"NORMAL":14
					},
					"indices":15,
					"material":3
				},
				{
					"attributes":{
						"POSITION":16,
						"TEXCOORD_0":17,
						"NORMAL":18
					},
					"indices":19,
					"material":4
				}
			]
		}
	],
	"accessors":[
		{
			"bufferView":0,
			"componentType":5126,
			"count":145,
			"max":[
				1.7444772720336914,
				1.8465237617492676,
				2.918527603149414
			],
			"min":[
				-0.6314155459403992,
				-4.120365142822266,
				-2.68790340423584
			],
			"type":"VEC3"
		},
		{
			"bufferView":1,
			"componentType":5126,
			"count":145,
			"type":"VEC2"
		},
		{
			"bufferView":2,
			"componentType":5126,
			"count":145,
			"type":"VEC3"
		},
		{
			"bufferView":3,
			"componentType":5123,
			"count":432,
			"type":"SCALAR"
		},
		{
			"bufferView":4,
			"componentType":5126,
			"count":498,
			"max":[
				2.1305153369903564,
				8.02055549621582,
				3.666365623474121
			],
			"min":[
				-2.838736057281494,
				-7.765229225158691,
				-3.454906463623047
			],
			"type":"VEC3"
		},
		{
			"bufferView":5,
			"componentType":5126,
			"count":498,
			"type":"VEC2"
		},
		{
			"bufferView":6,
			"componentType":5126,
			"count":498,
			"type":"VEC3"
		},
		{
			"bufferView":7,
			"componentType":5123,
			"count":2370,
			"type":"SCALAR"
		},
		{
			"bufferView":8,
			"componentType":5126,
			"count":63,
			"max":[
				2.8362646102905273,
				2.5561399459838867,
				2.8277225494384766
			],
			"min":[
				-2.838736057281494,
				-0.07321912050247192,
				-2.59710693359375
			],
			"type":"VEC3"
		},
		{
			"bufferView":9,
			"componentType":5126,
			"count":63,
			"type":"VEC2"
		},
		{
			"bufferView":10,
			"componentType":5126,
			"count":63,
			"type":"VEC3"
		},
		{
			"bufferView":11,
			"componentType":5123,
			"count":216,
			"type":"SCALAR"
		},
		{
			"bufferView":12,
			"componentType":5126,
			"count":100,
			"max":[
				1.340543270111084,
				1.5527763366699219,
				2.686946392059326
			],
			"min":[
				-1.6452522277832031,
				-8.71041202545166,
				-2.4563302993774414
			],
			"type":"VEC3"
		},
		{
			"bufferView":13,
			"componentType":5126,
			"count":100,
			"type":"VEC2"
		},
		{
			"bufferView":14,
			"componentType":5126,
			"count":100,
			"type":"VEC3"
		},
		{
			"bufferView":15,
			"componentType":5123,
			"count":348,
			"type":"SCALAR"
		},
		{
			"bufferView":16,
			"componentType":5126,
			"count":128,
			"max":[
				1.4247989654541016,
				1.7118237018585205,
				1.3619881868362427
			],
			"min":[
				1.1492156982421875,
				1.191612720489502,
				-1.1313644647598267
			],
			"type":"VEC3"
		},
		{
			"bufferView":17,
			"componentType":5126,
			"count":128,
			"type":"VEC2"
		},
		{
			"bufferView":18,
			"componentType":5126,
			"count":128,
			"type":"VEC3"
		},
		{
			"bufferView":19,
			"componentType":5123,
			"count":384,
			"type":"SCALAR"
		}
	],
	"bufferViews":[
		{
			"buffer":0,
			"byteLength":1740,
			"byteOffset":0,
			"target":34962
		},
		{
			"buffer":0,
			"byteLength":1160,
			"byteOffset":1740,
			"target":34962
		},
		{
			"buffer":0,
			"byteLength":1740,
			"byteOffset":2900,
			"target":34962
		},
		{
			"buffer":0,
			"byteLength":864,
			"byteOffset":4640,
			"target":34963
		},
		{
			"buffer":0,
			"byteLength":5976,
			"byteOffset":5504,
			"target":34962
		},
		{
			"buffer":0,
			"byteLength":3984,
			"byteOffset":11480,
			"target":34962
		},
		{
			"buffer":0,
			"byteLength":5976,
			"byteOffset":15464,
			"target":34962
		},
		{
			"buffer":0,
			"byteLength":4740,
			"byteOffset":21440,
			"target":34963
		},
		{
			"buffer":0,
			"byteLength":756,
			"byteOffset":26180,
			"target":34962
		},
		{
			"buffer":0,
			"byteLength":504,
			"byteOffset":26936,
			"target":34962
		},
		{
			"buffer":0,
			"byteLength":756,
			"byteOffset":27440,
			"target":34962
		},
		{
			"buffer":0,
			"byteLength":432,
			"byteOffset":28196,
			"target":34963
		},
		{
			"buffer":0,
			"byteLength":1200,
			"byteOffset":28628,
			"target":34962
		},
		{
			"buffer":0,
			"byteLength":800,
			"byteOffset":29828,
			"target":34962
		},
		{
			"buffer":0,
			"byteLength":1200,
			"byteOffset":30628,
			"target":34962
		},
		{
			"buffer":0,
			"byteLength":696,
			"byteOffset":31828,
			"target":34963
		},
		{
			"buffer":0,
			"byteLength":1536,
			"byteOffset":32524,
			"target":34962
		},
		{
			"buffer":0,
			"byteLength":1024,
			"byteOffset":34060,
			"target":34962
		},
		{
			"buffer":0,
			"byteLength":1536,
			"byteOffset":35084,
			"target":34962
		},
		{
			"buffer":0,
			"byteLength":768,
			"byteOffset":36620,
			"target":34963
		}
	],
	"buffers":[
		{
			"byteLength":37388,
			"uri":"data:application/octet-stream;base64,"
		}
	]
}
