{
  "accessors": [
    {
      "bufferView": 2,
      "componentType": 5126,
      "count": 6112,
      "max": [
        17.13132667541504,
        8.511951446533203,
        13.402876853942871
      ],
      "min": [
        -17.13132667541504,
        -14.808767318725586,
        0.013244569301605225
      ],
      "type": "VEC3"
    },
    {
      "bufferView": 2,
      "byteOffset": 73344,
      "componentType": 5126,
      "count": 6112,
      "max": [
        1.0,
        1.0,
        0.9999785423278809
      ],
      "min": [
        -1.0,
        -1.0,
        -0.9999785423278809
      ],
      "type": "VEC3"
    },
    {
      "bufferView": 1,
      "componentType": 5126,
      "count": 6112,
      "max": [
        1.0000001192092896,
        1.0000001192092896
      ],
      "min": [
        0.0,
        0.0
      ],
      "type": "VEC2"
    },
    {
      "bufferView": 0,
      "componentType": 5125,
      "count": 33312,
      "type": "SCALAR"
    },
    {
      "bufferView": 2,
      "byteOffset": 146688,
      "componentType": 5126,
      "count": 2138,
      "max": [
        13.298481941223145,
        6.855510711669922,
        74.6766586303711
      ],
      "min": [
        -13.298482894897461,
        -15.877089500427246,
        13.158914566040039
      ],
      "type": "VEC3"
    },
    {
      "bufferView": 2,
      "byteOffset": 172344,
      "componentType": 5126,
      "count": 2138,
      "max": [
        0.9998772144317627,
        0.9999823570251465,
        0.9988023042678833
      ],
      "min": [
        -0.9998772144317627,
        -0.9995743632316589,
        -0.9321960806846619
      ],
      "type": "VEC3"
    },
    {
      "bufferView": 0,
      "byteOffset": 133248,
      "componentType": 5125,
      "count": 12492,
      "type": "SCALAR"
    },
    {
      "bufferView": 2,
      "byteOffset": 198000,
      "componentType": 5126,
      "count": 1432,
      "max": [
        21.105806350708008,
        1.1761893033981323,
        72.40895080566406
      ],
      "min": [
        -21.105806350708008,
        -11.885364532470703,
        44.791038513183594
      ],
      "type": "VEC3"
    },
    {
      "bufferView": 2,
      "byteOffset": 215184,
      "componentType": 5126,
      "count": 1432,
      "max": [
        0.9999714493751526,
        0.9930452108383179,
        0.8798162937164307
      ],
      "min": [
        -0.9999714493751526,
        -0.9957262277603149,
        -0.4715653657913208
      ],
      "type": "VEC3"
    },
    {
      "bufferView": 0,
      "byteOffset": 183216,
      "componentType": 5125,
      "count": 8220,
      "type": "SCALAR"
    },
    {
      "bufferView": 2,
      "byteOffset": 232368,
      "componentType": 5126,
      "count": 5146,
      "max": [
        23.01906967163086,
        -2.996018409729004,
        45.77488708496094
      ],
      "min": [
        -23.01906967163086,
        -13.532184600830078,
        41.281036376953125
      ],
      "type": "VEC3"
    },
    {
      "bufferView": 2,
      "byteOffset": 294120,
      "componentType": 5126,
      "count": 5146,
      "max": [
        0.992034912109375,
        0.9984087347984314,
        0.9939483404159546
      ],
      "min": [
        -0.992034912109375,
        -0.9984086751937866,
        -0.9939477443695068
      ],
      "type": "VEC3"
    },
    {
      "bufferView": 1,
      "byteOffset": 48896,
      "componentType": 5126,
      "count": 5146,
      "max": [
        1.0000001192092896,
        1.0000001192092896
      ],
      "min": [
        8.881784197001252e-16,
        2.220446049250313e-16
      ],
      "type": "VEC2"
    },
    {
      "bufferView": 0,
      "byteOffset": 216096,
      "componentType": 5125,
      "count": 27648,
      "type": "SCALAR"
    },
    {
      "bufferView": 2,
      "byteOffset": 355872,
      "componentType": 5126,
      "count": 2110,
      "max": [
        21.238449096679688,
        -3.8668479919433594,
        42.86347198486328
      ],
      "min": [
        -21.238449096679688,
        -12.661212921142578,
        29.169803619384766
      ],
      "type": "VEC3"
    },
    {
      "bufferView": 2,
      "byteOffset": 381192,
      "componentType": 5126,
      "count": 2110,
      "max": [
        0.9997696876525879,
        0.9988594651222229,
        0.35151124000549316
      ],
      "min": [
        -0.9997696876525879,
        -0.9995568990707397,
        -0.994853675365448
      ],
      "type": "VEC3"
    },
    {
      "bufferView": 0,
      "byteOffset": 326688,
      "componentType": 5125,
      "count": 12480,
      "type": "SCALAR"
    },
    {
      "bufferView": 2,
      "byteOffset": 406512,
      "componentType": 5126,
      "count": 559,
      "max": [
        13.779640197753906,
        9.444863319396973,
        99.38278198242188
      ],
      "min": [
        -13.779630661010742,
        -18.114398956298828,
        71.823486328125
      ],
      "type": "VEC3"
    },
    {
      "bufferView": 2,
      "byteOffset": 413220,
      "componentType": 5126,
      "count": 559,
      "max": [
        1.0,
        1.0,
        1.0
      ],
      "min": [
        -1.0,
        -1.0,
        -1.0
      ],
      "type": "VEC3"
    },
    {
      "bufferView": 1,
      "byteOffset": 90064,
      "componentType": 5126,
      "count": 559,
      "max": [
        1.0000001192092896,
        1.0
      ],
      "min": [
        0.0,
        0.0
      ],
      "type": "VEC2"
    },
    {
      "bufferView": 0,
      "byteOffset": 376608,
      "componentType": 5125,
      "count": 2880,
      "type": "SCALAR"
    }
  ],
  "asset": {
    "extras": {
      "author": "Tiko (https://sketchfab.com/tikoavp)",
      "license": "CC-BY-4.0 (http://creativecommons.org/licenses/by/4.0/)",
      "source": "https://sketchfab.com/3d-models/fashion-figure-base-644b113218b94c94b5f07be0b6f455a3",
      "title": "Fashion Figure Base"
    },
    "generator": "Sketchfab-14.68.0",
    "version": "2.0"
  },
  "bufferViews": [
    {
      "buffer": 0,
      "byteLength": 388128,
      "name": "floatBufferViews",
      "target": 34963
    },
    {
      "buffer": 0,
      "byteLength": 94536,
      "byteOffset": 388128,
      "byteStride": 8,
      "name": "floatBufferViews",
      "target": 34962
    },
    {
      "buffer": 0,
      "byteLength": 419928,
      "byteOffset": 482664,
      "byteStride": 12,
      "name": "floatBufferViews",
      "target": 34962
    }
  ],
  "buffers": [
    {
      "byteLength": 902592,
      "uri": "ltf.bin"
    }
  ],
  "extensionsUsed": [
    "KHR_materials_specular"
  ],
  "materials": [
    {
      "doubleSided": true,
      "extensions": {
        "KHR_materials_specular": {
          "specularColorFactor": [
            1.0,
            1.0,
            1.0
          ],
          "specularFactor": 1.0
        }
      },
      "name": "Material.001",
      "pbrMetallicRoughness": {
        "baseColorFactor": [
          0.940665205793594,
          0.940665205793594,
          0.940665205793594,
          1.0
        ],
        "metallicFactor": 0.0,
        "roughnessFactor": 0.0
      }
    }
  ],
  "meshes": [
    {
      "name": "Shoe.001_Material.001_0",
      "primitives": [
        {
          "attributes": {
            "NORMAL": 1,
            "POSITION": 0,
            "TEXCOORD_0": 2
          },
          "indices": 3,
          "material": 0,
          "mode": 4
        }
      ]
    },
    {
      "name": "Body.002_Material.001_0",
      "primitives": [
        {
          "attributes": {
            "NORMAL": 5,
            "POSITION": 4
          },
          "indices": 6,
          "material": 0,
          "mode": 4
        }
      ]
    },
    {
      "name": "Arm.001_Material.001_0",
      "primitives": [
        {
          "attributes": {
            "NORMAL": 8,
            "POSITION": 7
          },
          "indices": 9,
          "material": 0,
          "mode": 4
        }
      ]
    },
    {
      "name": "Torus.005_Material.001_0",
      "primitives": [
        {
          "attributes": {
            "NORMAL": 11,
            "POSITION": 10,
            "TEXCOORD_0": 12
          },
          "indices": 13,
          "material": 0,
          "mode": 4
        }
      ]
    },
    {
      "name": "Retopo_Mesh.007_Material.001_0",
      "primitives": [
        {
          "attributes": {
            "NORMAL": 15,
            "POSITION": 14
          },
          "indices": 16,
          "material": 0,
          "mode": 4
        }
      ]
    },
    {
      "name": "Sphere.001_Material.001_0",
      "primitives": [
        {
          "attributes": {
            "NORMAL": 18,
            "POSITION": 17,
            "TEXCOORD_0": 19
          },
          "indices": 20,
          "material": 0,
          "mode": 4
        }
      ]
    }
  ],
  "nodes": [
    {
      "children": [
        1
      ],
      "matrix": [
        1.0,
        0.0,
        0.0,
        0.0,
        0.0,
        2.220446049250313e-16,
        -1.0,
        0.0,
        0.0,
        1.0,
        2.220446049250313e-16,
        0.0,
        0.0,
        0.0,
        0.0,
        1.0
      ],
      "name": "Sketchfab_model"
    },
    {
      "children": [
        2
      ],
      "matrix": [
        0.009999999776482582,
        0.0,
        0.0,
        0.0,
        0.0,
        0.0,
        0.009999999776482582,
        0.0,
        0.0,
        -0.009999999776482582,
        0.0,
        0.0,
        0.0,
        0.0,
        0.0,
        1.0
      ],
      "name": "5980bf8295c04111bdf88ece960599aa.fbx"
    },
    {
      "children": [
        3,
        5,
        7,
        9,
        11,
        13
      ],
      "name": "RootNode"
    },
    {
      "children": [
        4
      ],
      "matrix": [
        100.0,
        0.0,
        0.0,
        0.0,
        0.0,
        -1.629206793918314e-05,
        -99.99999999999868,
        0.0,
        0.0,
        99.99999999999868,
        -1.629206793918314e-05,
        0.0,
        0.0,
        0.0,
        0.0,
        1.0
      ],
      "name": "Shoe.001"
    },
    {
      "mesh": 0,
      "name": "Shoe.001_Material.001_0"
    },
    {
      "children": [
        6
      ],
      "matrix": [
        100.0,
        0.0,
        0.0,
        0.0,
        0.0,
        -1.629206793918314e-05,
        -99.99999999999868,
        0.0,
        0.0,
        99.99999999999868,
        -1.629206793918314e-05,
        0.0,
        0.0,
        0.0,
        0.0,
        1.0
      ],
      "name": "Body.002"
    },
    {
      "mesh": 1,
      "name": "Body.002_Material.001_0"
    },
    {
      "children": [
        8
      ],
      "matrix": [
        100.0,
        0.0,
        0.0,
        0.0,
        0.0,
        -1.629206793918314e-05,
        -99.99999999999868,
        0.0,
        0.0,
        99.99999999999868,
        -1.629206793918314e-05,
        0.0,
        0.0,
        0.0,
        0.0,
        1.0
      ],
      "name": "Arm.001"
    },
    {
      "mesh": 2,
      "name": "Arm.001_Material.001_0"
    },
    {
      "children": [
        10
      ],
      "matrix": [
        100.0,
        0.0,
        0.0,
        0.0,
        0.0,
        -1.629206793918314e-05,
        -99.99999999999868,
        0.0,
        0.0,
        99.99999999999868,
        -1.629206793918314e-05,
        0.0,
        0.0,
        0.0,
        0.0,
        1.0
      ],
      "name": "Torus.005"
    },
    {
      "mesh": 3,
      "name": "Torus.005_Material.001_0"
    },
    {
      "children": [
        12
      ],
      "matrix": [
        100.0,
        0.0,
        0.0,
        0.0,
        0.0,
        -1.629206793918314e-05,
        -99.99999999999868,
        0.0,
        0.0,
        99.99999999999868,
        -1.629206793918314e-05,
        0.0,
        0.0,
        0.0,
        0.0,
        1.0
      ],
      "name": "Retopo_Mesh.007"
    },
    {
      "mesh": 4,
      "name": "Retopo_Mesh.007_Material.001_0"
    },
    {
      "children": [
        14
      ],
      "matrix": [
        100.0,
        0.0,
        0.0,
        0.0,
        0.0,
        -1.629206793918314e-05,
        -99.99999999999868,
        0.0,
        0.0,
        99.99999999999868,
        -1.629206793918314e-05,
        0.0,
        0.0,
        0.0,
        0.0,
        1.0
      ],
      "name": "Sphere.001"
    },
    {
      "mesh": 5,
      "name": "Sphere.001_Material.001_0"
    }
  ],
  "scene": 0,
  "scenes": [
    {
      "name": "Sketchfab_Scene",
      "nodes": [
        0
      ]
    }
  ]
}
